<svg width="120" height="120" viewBox="0 0 120 120" fill="none" xmlns="http://www.w3.org/2000/svg">
	<circle cx="60" cy="60" r="60" fill="#A7AECE" />
	<circle opacity="0.2" cx="60" cy="60" r="48" fill="#515570" />
	<path
		d="M95.7199 47.16C97.801 46.578 99.1344 44.5508 98.8447 42.4094C98.555 40.268 96.7308 38.668 94.5699 38.66C96.4904 37.6173 97.3329 35.3069 96.5345 33.2727C95.736 31.2384 93.5469 30.118 91.4299 30.66C93.0597 29.1846 93.3252 26.7221 92.0474 24.9332C90.7696 23.1443 88.3541 22.5968 86.4299 23.66C87.5108 21.8602 87.1449 19.5442 85.5617 18.1654C83.9784 16.7866 81.6342 16.7421 79.9999 18.06C80.7209 16.0155 79.8189 13.7529 77.8891 12.7653C75.9593 11.7776 73.5964 12.3694 72.3599 14.15C72.5864 11.9885 71.1756 9.99397 69.0621 9.48774C66.9485 8.9815 64.7872 10.1204 64.0099 12.15C63.6855 10.0086 61.8288 8.4362 59.6631 8.46901C57.4975 8.50182 55.6893 10.1297 55.4299 12.28L54.7099 12.37C53.852 10.392 51.6722 9.34367 49.5914 9.9084C47.5107 10.4731 46.16 12.4797 46.4199 14.62C45.0998 12.9261 42.7394 12.4523 40.8679 13.5056C38.9964 14.559 38.1767 16.8226 38.9399 18.83C37.2597 17.4768 34.8398 17.5669 33.2648 19.0412C31.6899 20.5155 31.4405 22.9243 32.6799 24.69C30.7088 23.7099 28.3159 24.3647 27.1186 26.2119C25.9212 28.0592 26.3004 30.5108 27.9999 31.91C25.8795 31.4706 23.7606 32.6651 23.0388 34.7067C22.3171 36.7483 23.2145 39.0091 25.1399 40C22.9782 40.0885 21.2136 41.7589 21.0068 43.9125C20.8001 46.0661 22.2146 48.0418 24.3199 48.54C22.2916 49.1781 21.0268 51.1945 21.3351 53.2983C21.6435 55.4022 23.4338 56.9708 25.5599 57C23.5579 58.0181 22.6667 60.398 23.5076 62.4807C24.3485 64.5633 26.6422 65.6573 28.7899 65C27.1601 66.4754 26.8946 68.9379 28.1724 70.7268C29.4502 72.5157 31.8657 73.0632 33.7899 72C32.6321 73.8266 32.9997 76.2275 34.6509 77.6241C36.3021 79.0207 38.7307 78.9848 40.3399 77.54C39.641 79.5916 40.5667 81.8438 42.5062 82.8111C44.4458 83.7783 46.8017 83.1626 48.0199 81.37C47.8392 83.5249 49.2759 85.4827 51.3858 85.9566C53.4957 86.4305 55.6317 85.2752 56.3899 83.25C56.6831 85.4487 58.5904 87.0702 60.8076 87.0059C63.0248 86.9415 64.8348 85.212 64.9999 83C65.8365 84.9955 68.0178 86.0672 70.1086 85.5098C72.1993 84.9524 73.5577 82.9372 73.2899 80.79C74.5811 82.518 76.9472 83.0321 78.839 81.9956C80.7308 80.9591 81.5712 78.6883 80.8099 76.67C82.48 78.0241 84.8899 77.9512 86.4751 76.4987C88.0604 75.0462 88.3432 72.6519 87.1399 70.87C89.0876 71.8181 91.4362 71.181 92.6378 69.3786C93.8394 67.5762 93.5242 65.1632 91.8999 63.73C94.0155 64.1785 96.1375 62.9973 96.8711 60.9629C97.6047 58.9286 96.7248 56.6649 94.8099 55.66C96.9711 55.5928 98.7514 53.9415 98.9808 51.7914C99.2102 49.6414 97.8183 47.6517 95.7199 47.13V47.16Z"
		fill="#393C54" />
	<circle cx="85.8401" cy="66.87" r="7.5" fill="#8F5653" />
	<path
		d="M59.9999 120C73.6505 120.016 86.8951 115.358 97.5299 106.8L95.5299 101.27C93.9999 97.5 89.6799 95 84.8899 95H35.1099C30.3199 95 26.0399 97.51 24.4299 101.28L22.4299 106.81C33.0768 115.373 46.3369 120.028 59.9999 120V120Z"
		fill="#FF8475" />
	<path
		d="M70.26 96.86C70.26 102.52 65.66 106.11 60 106.11C54.34 106.11 49.74 102.52 49.74 96.86C49.74 91.2 54.34 93.44 60 93.44C65.66 93.44 70.26 91.19 70.26 96.86Z"
		fill="white" />
	<path d="M60 84.88V94.88" stroke="#8F5653" stroke-width="16" stroke-linecap="round" />
	<circle cx="34.1599" cy="66.87" r="7.5" fill="#8F5653" />
	<path
		d="M60 94C52.8905 94.0027 46.0718 91.1783 41.0466 86.1493C36.0213 81.1203 33.202 74.2994 33.21 67.19V57.57C33.21 42.7743 45.2043 30.78 60 30.78C74.7957 30.78 86.79 42.7743 86.79 57.57V67.19C86.7979 74.2994 83.9786 81.1203 78.9534 86.1493C73.9281 91.1783 67.1094 94.0027 60 94Z"
		fill="#B56B63" />
	<path
		d="M59.15 26.12C43.92 26.57 32 39.47 32 54.7C32 55.8046 32.8954 56.7 34 56.7V56.7C35.2452 56.6778 36.3163 55.8127 36.6 54.6V54.6C37.4108 50.1955 41.2515 46.9984 45.73 47H74.27C78.7485 46.9984 82.5892 50.1955 83.4 54.6V54.6C83.6992 55.7968 84.7665 56.6424 86 56.66V56.66C87.1046 56.66 88 55.7646 88 54.66V54.06C87.9873 46.4947 84.9138 39.2565 79.4793 33.9934C74.0448 28.7304 66.7118 25.8903 59.15 26.12Z"
		fill="#393C54" />
	<path opacity="0.4" d="M70.1201 59.84L79.2101 59.6" stroke="#515570" stroke-width="1.89" stroke-linecap="round"
		stroke-linejoin="round" />
	<path opacity="0.4" d="M49.88 59.84L40.79 59.6" stroke="#515570" stroke-width="1.89" stroke-linecap="round"
		stroke-linejoin="round" />
	<path
		d="M67.5501 80C67.8173 80.0154 68.0672 80.1373 68.2439 80.3384C68.4206 80.5395 68.5092 80.803 68.4901 81.07C67.9775 85.3758 64.3263 88.6183 59.9901 88.6183C55.6538 88.6183 52.0026 85.3758 51.4901 81.07C51.4709 80.7997 51.5623 80.5332 51.7432 80.3315C51.9242 80.1298 52.1793 80.0102 52.4501 80L67.5501 80Z"
		fill="#393C54" />
	<path d="M55 86.91C57.9996 89.1108 62.0804 89.1108 65.08 86.91C64 85.16 62.17 85 60 85C57.83 85 56 85.16 55 86.91Z"
		fill="#F85565" />
	<path
		d="M64.9999 82H54.9999C54.5023 81.9722 54.0372 81.7436 53.7111 81.3666C53.385 80.9896 53.2258 80.4965 53.2699 80H66.7699C66.8141 80.5031 66.6496 81.0023 66.3149 81.3805C65.9802 81.7587 65.5047 81.9827 64.9999 82Z"
		fill="white" />
	<rect x="56" y="80" width="2" height="3" fill="#393C54" />
	<path
		d="M59.3899 68.24L56.1399 75.68C56.0303 75.8977 56.0436 76.1571 56.175 76.3624C56.3064 76.5677 56.5363 76.6884 56.7799 76.68H63.2699C63.5135 76.6884 63.7435 76.5677 63.8749 76.3624C64.0062 76.1571 64.0196 75.8977 63.9099 75.68L60.6599 68.24C60.5452 67.9928 60.2975 67.8346 60.0249 67.8346C59.7524 67.8346 59.5046 67.9928 59.3899 68.24V68.24Z"
		fill="#8F5653" />
	<path d="M50 68C50 66.3431 48.6569 65 47 65C45.3431 65 44 66.3431 44 68" stroke="#515570" stroke-width="2"
		stroke-linecap="round" />
	<path d="M76 68C76 66.3431 74.6569 65 73 65C71.3431 65 70 66.3431 70 68" stroke="#515570" stroke-width="2"
		stroke-linecap="round" />
</svg>