<svg width="120" height="121" viewBox="0 0 120 121" fill="none" xmlns="http://www.w3.org/2000/svg">
<circle cx="60.0001" cy="60.0902" r="60" fill="#00ADFE"/>
<circle opacity="0.3" cx="60.0001" cy="60.0902" r="48" fill="white"/>
<path d="M27.0801 57.6602V42.0102C27.0801 23.829 41.8189 9.09021 60.0001 9.09021C78.1814 9.09021 92.9201 23.829 92.9201 42.0102V57.6602H27.0801Z" fill="#393C54"/>
<circle cx="87.3201" cy="56.5202" r="7.93" fill="#FBA875"/>
<path d="M60.0001 120.19C74.7628 120.211 89.0109 114.768 100 104.91L97.6101 99.2302C95.9001 95.2302 91.3901 92.5902 86.3201 92.5902H33.6901C28.6201 92.5902 24.1101 95.2502 22.4001 99.2302L20.0001 104.91C30.9894 114.768 45.2375 120.211 60.0001 120.19Z" fill="#B56B63"/>
<path d="M77.7201 94.3402C77.6243 92.7131 76.27 91.4467 74.6401 91.4602H45.3601C43.714 91.4531 42.3552 92.7457 42.2801 94.3902C42.2801 94.5002 42.2801 94.6002 42.2801 94.7102C42.1101 102.03 52.8001 111.35 52.8001 111.35L60.0001 104.14L67.1701 111.31C67.1701 111.31 77.7301 102.31 77.7301 95.0902C77.7301 94.8302 77.7301 94.5802 77.7201 94.3402Z" fill="white"/>
<path d="M60.0001 80.8402V94.5902" stroke="#FBA875" stroke-width="20" stroke-linecap="round"/>
<circle cx="32.6801" cy="56.5202" r="7.93" fill="#FBA875"/>
<path d="M60.0001 90.4602C52.4884 90.4629 45.2835 87.48 39.9719 82.1684C34.6603 76.8568 31.6775 69.6519 31.6801 62.1402V43.5202C31.6801 27.8795 44.3594 15.2002 60.0001 15.2002C75.6408 15.2002 88.3201 27.8795 88.3201 43.5202V62.1402C88.3228 69.6519 85.3399 76.8568 80.0283 82.1684C74.7167 87.48 67.5119 90.4629 60.0001 90.4602V90.4602Z" fill="#FFBB94"/>
<circle cx="73.5001" cy="55.3702" r="3" fill="#393C54"/>
<circle cx="46.5001" cy="55.3702" r="3" fill="#393C54"/>
<path opacity="0.4" d="M70.6901 49.0902L80.3101 48.8402" stroke="#515570" stroke-width="2" stroke-linecap="round" stroke-linejoin="round"/>
<path opacity="0.4" d="M49.3101 49.0902L39.6901 48.8402" stroke="#515570" stroke-width="2" stroke-linecap="round" stroke-linejoin="round"/>
<path d="M88.3201 60.9002H87.2201C85.4534 60.9002 84.0166 62.3236 84.0001 64.0902V64.0902C84.0001 65.8686 82.5585 67.3102 80.7801 67.3102H39.2201C37.4418 67.3102 36.0001 65.8686 36.0001 64.0902V64.0902C36.0001 62.3119 34.5585 60.8702 32.7801 60.8702H31.6801V78.3702C31.6801 93.8002 43.7801 106.84 59.2001 107.27C66.8469 107.486 74.2559 104.6 79.741 99.2672C85.226 93.9348 88.3205 86.6101 88.3201 78.9602V60.9002Z" fill="#393C54"/>
<path d="M67.5501 71.0902C67.8174 71.1056 68.0673 71.2275 68.244 71.4286C68.4206 71.6297 68.5093 71.8932 68.4901 72.1602C67.9776 76.466 64.3263 79.7085 59.9901 79.7085C55.6539 79.7085 52.0026 76.466 51.4901 72.1602C51.471 71.8899 51.5623 71.6234 51.7433 71.4217C51.9242 71.22 52.1793 71.1004 52.4501 71.0902L67.5501 71.0902Z" fill="white"/>
<path d="M60.0001 56.8402V63.3402" stroke="#FBA875" stroke-width="4" stroke-linecap="round"/>
<path d="M62.5001 64.0902H57.5001" stroke="#FBA875" stroke-width="4" stroke-linecap="round"/>
<path d="M32.0001 52.0902V32.0902" stroke="#393C54" stroke-width="4" stroke-linecap="round"/>
<path d="M88.0001 52.0902V31.0902" stroke="#393C54" stroke-width="4" stroke-linecap="round"/>
<path d="M27.0001 19.9202C27.0001 28.2984 33.792 35.0902 42.1701 35.0902H87.5001C87.8242 35.1043 88.135 34.9602 88.3337 34.7038C88.5325 34.4474 88.5945 34.1106 88.5001 33.8002C84.5021 21.4428 72.9882 13.076 60.0001 13.0902H27.0001V19.9202Z" fill="#515570"/>
<path opacity="0.1" d="M66.5001 29.0902H43.7301C38.2073 29.0902 33.7301 24.6131 33.7301 19.0902" stroke="white" stroke-width="4" stroke-linecap="round"/>
<path opacity="0.3" d="M61.0001 63.0902H63.0001" stroke="#F85565" stroke-width="2" stroke-linecap="round" stroke-linejoin="round"/>
<ellipse opacity="0.1" cx="46.4202" cy="63.7602" rx="4.58" ry="2.98" fill="#F85565"/>
<ellipse opacity="0.1" cx="73.5801" cy="63.7602" rx="4.58" ry="2.98" fill="#F85565"/>
</svg>