<svg width="120" height="120" viewBox="0 0 120 120" fill="none" xmlns="http://www.w3.org/2000/svg">
<circle cx="60" cy="60" r="60" fill="#F2BC0F"/>
<circle opacity="0.3" cx="60" cy="60" r="48" fill="white"/>
<path d="M75.19 19.51V8.41999C75.1944 6.70033 74.0992 5.17028 72.47 4.61999C68.4381 3.3349 64.2318 2.68051 60 2.67999V2.67999C37.3563 2.67999 19 21.0363 19 43.68V49.68C19.0329 66.052 32.2881 79.3205 48.66 79.37H73.34C88.6162 79.37 101 66.9862 101 51.71V43.71C101.006 37.8966 99.7715 32.1488 97.38 26.85C96.7253 25.425 95.2982 24.514 93.73 24.52H80.17C77.4125 24.509 75.1845 22.2675 75.19 19.51Z" fill="#393C54"/>
<circle cx="87.3199" cy="60.43" r="7.93" fill="#8F5653"/>
<path d="M59.9999 120C74.6857 120.018 88.8641 114.629 99.8299 104.86L97.5999 99.64C95.8899 95.64 91.3799 93 86.3099 93H33.6899C28.6199 93 24.1099 95.66 22.3999 99.64L20.1699 104.86C31.1357 114.629 45.3141 120.018 59.9999 120V120Z" fill="#393C54"/>
<path d="M73.4301 95.73C73.4301 103.147 67.4173 109.16 60.0001 109.16C52.5829 109.16 46.5701 103.147 46.5701 95.73C46.5701 90.73 52.5701 92.48 60.0001 92.48C67.4301 92.48 73.4301 90.68 73.4301 95.73Z" fill="#A7AECE"/>
<path d="M60 81.75V95.5" stroke="#8F5653" stroke-width="20" stroke-linecap="round"/>
<circle cx="32.68" cy="60.43" r="7.93" fill="#8F5653"/>
<path d="M32 66.27V48.54C32 34.87 41.69 22.85 55.19 20.6C63.3372 19.1793 71.6958 21.433 78.0245 26.7568C84.3533 32.0806 88.0048 39.9298 88 48.2V66.61C88.0048 74.8802 84.3533 82.7294 78.0245 88.0532C71.6958 93.377 63.3372 95.6307 55.19 94.21C41.69 92 32 80 32 66.27Z" fill="#B56B63"/>
<path opacity="0.4" d="M70.6899 49L80.3099 50.75" stroke="#515570" stroke-width="2" stroke-linecap="round" stroke-linejoin="round"/>
<path d="M66.21 75C66.4363 75.001 66.6513 75.0991 66.8005 75.2693C66.9496 75.4395 67.0187 75.6655 66.99 75.89C66.56 79.36 63.59 80.05 59.99 80.05C56.39 80.05 53.43 79.36 52.99 75.89C52.9614 75.6655 53.0304 75.4395 53.1795 75.2693C53.3287 75.0991 53.5437 75.001 53.77 75L66.21 75Z" fill="white"/>
<path fill-rule="evenodd" clip-rule="evenodd" d="M60 71.32C65 71.32 70.93 71.4 71 76.4V91.75C71.0039 93.5195 69.8448 95.0813 68.15 95.59C62.8326 97.1769 57.1675 97.1769 51.85 95.59C50.1552 95.0813 48.9961 93.5195 49 91.75V76.4C49.08 71.43 55 71.32 60 71.32ZM63.78 85.4H66C67.1046 85.4 68 84.5046 68 83.4V78.49C68 77.3854 67.1046 76.49 66 76.49H54C52.8955 76.49 52 77.3854 52 78.49V83.4C52 84.5046 52.8955 85.4 54 85.4H56.16C56.6278 85.4148 57.0433 85.1032 57.16 84.65L57.78 82.16C57.8928 81.7028 58.3093 81.3863 58.78 81.4H61.16C61.6307 81.3863 62.0472 81.7028 62.16 82.16L62.78 84.65C62.8968 85.1032 63.3123 85.4148 63.78 85.4Z" fill="#393C54"/>
<path opacity="0.4" d="M49.3099 49L39.6899 50.75" stroke="#515570" stroke-width="2" stroke-linecap="round" stroke-linejoin="round"/>
<path d="M60 57V70" stroke="#8F5653" stroke-width="5" stroke-linecap="round"/>
<path d="M33.6101 20L28.0701 25.8C27.1497 26.7548 26.6464 28.036 26.6708 29.3619C26.6951 30.6878 27.2452 31.9497 28.2001 32.87V32.87L40.68 19.87V19.87C39.7253 18.9497 38.444 18.4463 37.1181 18.4707C35.7922 18.4951 34.5303 19.0452 33.6101 20V20Z" fill="#4BC190"/>
<path d="M29.24 31.79L35.01 37.34" stroke="#4BC190" stroke-width="3"/>
<path d="M32.71 28.19L38.48 33.73" stroke="#4BC190" stroke-width="3"/>
<path d="M36.1699 24.58L41.9399 30.13" stroke="#4BC190" stroke-width="3"/>
<path d="M39.6399 20.98L45.4099 26.53" stroke="#4BC190" stroke-width="3"/>
<path fill-rule="evenodd" clip-rule="evenodd" d="M27.23 19.45V19.45L32.28 24.31V24.31L27.23 19.45V19.45Z" stroke="#4BC190" stroke-width="4" stroke-linecap="round" stroke-linejoin="round"/>
<path d="M63 69H57" stroke="#8F5653" stroke-width="5" stroke-linecap="round"/>
<path d="M29 53.41L32 58.28L35.48 46.68C36.8811 42.0405 41.1535 38.8646 46 38.86L84.15 38.96V38.96C84.1546 45.2946 85.4262 51.5642 87.89 57.4L88 57.67L91 53.41L87.3 38.41C86.0638 33.3622 82.9112 28.9938 78.51 26.23L74.51 23.76C66.6839 18.8584 56.8957 18.2964 48.56 22.27L44.89 24C39.5588 26.5492 35.5605 31.2418 33.89 36.91L29 53.41Z" fill="#393C54"/>
<circle cx="73.6699" cy="58.28" r="7.5" fill="#A7AECE"/>
<path opacity="0.3" d="M73.67 50.78C73.45 50.78 73.24 50.78 73.03 50.78L66.2 57.64C66.2 57.85 66.2 58.06 66.2 58.28C66.1981 59.669 66.5861 61.0307 67.32 62.21L77.6 51.9C76.4206 51.1662 75.059 50.7781 73.67 50.78V50.78Z" fill="white"/>
<path opacity="0.3" d="M70.2201 64.93L80.3201 54.83C80.0055 54.2272 79.612 53.6689 79.1501 53.17L68.5701 63.76C69.0637 64.224 69.6189 64.6177 70.2201 64.93V64.93Z" fill="white"/>
<circle cx="73.6699" cy="58.28" r="7.5" stroke="#515570" stroke-width="2.22" stroke-linecap="round" stroke-linejoin="round"/>
<circle cx="46.6699" cy="58.28" r="7.5" fill="#A7AECE"/>
<path opacity="0.3" d="M46.67 50.78C46.45 50.78 46.24 50.78 46.03 50.78L39.2 57.64C39.2 57.85 39.2 58.06 39.2 58.28C39.1981 59.669 39.5861 61.0307 40.32 62.21L50.6 51.9C49.4206 51.1662 48.059 50.7781 46.67 50.78V50.78Z" fill="white"/>
<path opacity="0.3" d="M43.2201 64.93L53.3201 54.83C53.0055 54.2272 52.612 53.6689 52.1501 53.17L41.5701 63.76C42.0637 64.224 42.6189 64.6177 43.2201 64.93Z" fill="white"/>
<circle cx="46.6699" cy="58.28" r="7.5" stroke="#515570" stroke-width="2.22" stroke-linecap="round" stroke-linejoin="round"/>
<path d="M54.1699 58.28H66.1699" stroke="#515570" stroke-width="2.22" stroke-linecap="round" stroke-linejoin="round"/>
</svg>
