<svg width="120" height="120" viewBox="0 0 120 120" fill="none" xmlns="http://www.w3.org/2000/svg">
<circle cx="60.0001" cy="60" r="60" fill="#FFD8C9"/>
<circle opacity="0.3" cx="60.0001" cy="60" r="48" fill="white"/>
<circle cx="87.3201" cy="56.43" r="7.93" fill="#8F5653"/>
<path d="M60 120C74.6858 120.018 88.8642 114.629 99.83 104.86L97.6 99.64C95.89 95.64 91.38 93 86.31 93H33.69C28.62 93 24.11 95.66 22.4 99.64L20.17 104.86C31.1359 114.629 45.3142 120.018 60 120V120Z" fill="#393C54"/>
<path d="M73.4301 94.73C73.4301 102.147 67.4173 108.16 60.0001 108.16C52.5829 108.16 46.5701 102.147 46.5701 94.73C46.5701 89.73 52.5701 91.48 60.0001 91.48C67.4301 91.48 73.4301 89.68 73.4301 94.73Z" fill="#FF8475"/>
<path d="M60.0001 80.75V94.5" stroke="#8F5653" stroke-width="20" stroke-linecap="round"/>
<circle cx="32.6801" cy="56.43" r="7.93" fill="#8F5653"/>
<path d="M60.0001 90.37C52.4883 90.3726 45.2835 87.3898 39.9719 82.0782C34.6603 76.7666 31.6774 69.5617 31.6801 62.05V43.43C31.6801 27.7893 44.3594 15.11 60.0001 15.11C75.6408 15.11 88.3201 27.7893 88.3201 43.43V62.05C88.3227 69.5617 85.3399 76.7666 80.0283 82.0782C74.7166 87.3898 67.5118 90.3726 60.0001 90.37V90.37Z" fill="#B56B63"/>
<circle cx="72.67" cy="55.28" r="3" fill="#393C54"/>
<circle cx="45.67" cy="55.28" r="3" fill="#393C54"/>
<path opacity="0.4" d="M70.3901 47L80.0001 48.75" stroke="#515570" stroke-width="2" stroke-linecap="round" stroke-linejoin="round"/>
<path opacity="0.4" d="M49.0001 47L39.3901 48.75" stroke="#515570" stroke-width="2" stroke-linecap="round" stroke-linejoin="round"/>
<path d="M59.1101 56L54.4401 66.69C54.3049 66.9997 54.3353 67.3568 54.5209 67.6392C54.7065 67.9216 55.0221 68.0912 55.3601 68.09H64.7001C65.0362 68.0878 65.3488 67.9169 65.532 67.635C65.7152 67.3531 65.7445 66.9981 65.6101 66.69L60.9401 56C60.7802 55.6374 60.4213 55.4034 60.0251 55.4034C59.6288 55.4034 59.2699 55.6374 59.1101 56V56Z" fill="#8F5653"/>
<path opacity="0.4" d="M88.3201 43.43C88.3201 27.7893 75.6408 15.11 60.0001 15.11C44.3593 15.11 31.6801 27.7893 31.6801 43.43V49H32.6101C36.4801 49 39.6101 37.87 39.6101 34V34.17C43.1301 37.93 50.9901 40.55 60.1301 40.55C69.5901 40.55 77.6701 37.75 81.0001 33.78V34C81.0001 37.87 84.1301 49 88.0001 49H88.3201V43.43Z" fill="#8F5653"/>
<path d="M66.2101 72C66.4364 72.001 66.6514 72.0991 66.8005 72.2693C66.9497 72.4395 67.0187 72.6655 66.9901 72.89C66.9901 76.756 63.8561 79.89 59.9901 79.89C56.1241 79.89 52.9901 76.756 52.9901 72.89C52.9614 72.6655 53.0304 72.4395 53.1796 72.2693C53.3288 72.0991 53.5438 72.001 53.7701 72L66.2101 72Z" fill="white"/>
<path opacity="0.4" d="M56.17 82H63.83" stroke="#515570" stroke-width="2" stroke-linecap="round" stroke-linejoin="round"/>
</svg>
