<svg width="120" height="121" viewBox="0 0 120 121" fill="none" xmlns="http://www.w3.org/2000/svg">
<circle cx="60.0002" cy="60.0006" r="60" fill="#F85565"/>
<circle opacity="0.2" cx="60.0002" cy="60.0006" r="48" fill="white"/>
<circle cx="85.0002" cy="56.0006" r="15" fill="#F2BC0F"/>
<circle cx="78.0002" cy="73.0006" r="10" fill="#F2BC0F"/>
<circle cx="35.0002" cy="56.0006" r="15" fill="#F2BC0F"/>
<circle cx="42.0002" cy="73.0006" r="10" fill="#F2BC0F"/>
<path d="M60.0002 10.8806V10.8806C77.6734 10.8806 92.0002 25.2075 92.0002 42.8806V47.5906C91.9947 59.5105 82.3302 69.1706 70.4102 69.1706H49.5902C37.6703 69.1706 28.0058 59.5105 28.0002 47.5906V42.8806C28.0002 25.2075 42.3271 10.8806 60.0002 10.8806Z" fill="#F2BC0F"/>
<circle cx="85.0002" cy="56.0006" r="7" fill="#FBA875"/>
<path d="M60.0002 120.001C71.5515 120.014 82.8586 116.676 92.5502 110.391L89.3702 99.6406C87.9558 95.6757 84.2098 93.0211 80.0002 93.0006H40.0502C35.8222 93 32.0508 95.6585 30.6302 99.6406L27.4502 110.391C37.1418 116.676 48.4489 120.014 60.0002 120.001Z" fill="#FFBB94"/>
<path d="M60.0002 84.7506V92.5006" stroke="#FBA875" stroke-width="14" stroke-linecap="round"/>
<circle cx="35.0002" cy="56.0006" r="7" fill="#FBA875"/>
<path d="M60.0002 86.0006C46.1931 86.0006 35.0002 74.8077 35.0002 61.0006V43.5206C35.0002 29.7135 46.1931 18.5206 60.0002 18.5206C73.8074 18.5206 85.0002 29.7135 85.0002 43.5206V61.0006C85.0002 74.8077 73.8074 86.0006 60.0002 86.0006Z" fill="#FFBB94"/>
<circle cx="72.0002" cy="54.2806" r="3" fill="#515570"/>
<path d="M66.5002 55.3706C67.4173 53.145 69.4719 51.5938 71.8636 51.3214C74.2553 51.0489 76.6061 52.0982 78.0002 54.0606" stroke="#515570" stroke-linecap="round" stroke-linejoin="round"/>
<circle cx="48.0002" cy="54.2806" r="3" fill="#515570"/>
<path d="M57.7502 65.0007C59.1755 65.6705 60.825 65.6705 62.2502 65.0007" stroke="#FBA875" stroke-width="3" stroke-linecap="round"/>
<path opacity="0.2" d="M51.0002 48.0006H41.7502" stroke="#515570" stroke-width="2" stroke-linecap="round" stroke-linejoin="round"/>
<circle opacity="0.2" cx="47.0003" cy="63.0007" r="5.08" fill="#F85565"/>
<path d="M32.5103 54.1506V43.4006C32.5103 28.4506 44.2203 15.7906 59.1703 15.4006C66.5901 15.182 73.7834 17.9712 79.1163 23.1347C84.4492 28.2981 87.4692 35.3976 87.4903 42.8206V42.5806C87.4903 43.6852 86.5948 44.5806 85.4903 44.5806V44.5806C82.8327 44.5774 80.3988 43.0924 79.1803 40.7306L73.5803 29.9206L66.1803 43.6506C60.6913 53.8189 50.0654 60.1552 38.5103 60.1506V60.1506C35.1965 60.1506 32.5103 57.4643 32.5103 54.1506Z" fill="#F8DC25"/>
<circle cx="37.6102" cy="45.5506" r="14.61" fill="#F8DC25"/>
<circle cx="40.0002" cy="29.9407" r="7.64" fill="#F8DC25"/>
<path opacity="0.3" d="M66.2202 30.9406L60.9002 40.8006C56.4756 49.0062 47.9128 54.1301 38.5902 54.1506V54.1506C33.3102 54.1506 29.0002 50.2606 29.0002 45.5506" stroke="#F2BC0F" stroke-width="3" stroke-linecap="round"/>
<circle cx="85.8103" cy="37.1306" r="7.64" fill="#F8DC25"/>
<circle opacity="0.2" cx="73.0003" cy="63.0007" r="5.08" fill="#F85565"/>
<circle cx="70.5002" cy="67.5006" r="1" fill="#515570"/>
<path d="M79.3202 116.901L72.0002 92.5006H70.0002L61.2402 120.071C67.3943 119.952 73.4929 118.883 79.3202 116.901V116.901Z" fill="white"/>
<path d="M57.5203 120.001L50.0003 92.5006H48.0003L40.6803 116.901C46.1154 118.738 51.7871 119.782 57.5203 120.001Z" fill="white"/>
<path d="M67.1203 74.4806C67.1946 74.3642 67.2163 74.2218 67.1802 74.0886C67.144 73.9553 67.0533 73.8435 66.9303 73.7806C66.2203 73.3906 64.9303 72.7006 64.1803 72.1706C63.3428 71.6194 62.2577 71.6194 61.4203 72.1706V72.1706C60.5731 72.7845 59.4274 72.7845 58.5803 72.1706V72.1706C57.7428 71.6194 56.6577 71.6194 55.8203 72.1706C55.0403 72.6806 53.8203 73.3506 53.1303 73.7506C53.0046 73.8166 52.9138 73.9338 52.8812 74.0719C52.8485 74.21 52.8774 74.3554 52.9603 74.4706C53.7303 75.5806 54.9603 78.8206 59.7803 78.9406H60.2203C65.0003 78.8006 66.4103 75.6106 67.1203 74.4806Z" fill="#F85565"/>
<path d="M57.0002 74.8506H63.0002C63.0002 74.8506 62.4002 76.1506 60.0002 76.1506C57.6002 76.1506 57.0002 74.8506 57.0002 74.8506Z" fill="white"/>
<circle cx="86.0002" cy="64.0006" r="3" fill="white"/>
<circle cx="34.0002" cy="64.0006" r="3" fill="white"/>
<path opacity="0.2" d="M68.0002 47.0006L73.1802 44.6406C74.7111 43.9402 76.5024 44.1319 77.8502 45.1406L79.0002 46.0006" stroke="#515570" stroke-width="2" stroke-linecap="round" stroke-linejoin="round"/>
</svg>
