<svg width="120" height="121" viewBox="0 0 120 121" fill="none" xmlns="http://www.w3.org/2000/svg">
<circle cx="60.0001" cy="60.0217" r="60" fill="#FF8475"/>
<circle opacity="0.4" cx="60.0001" cy="60.0217" r="48" fill="#F85565"/>
<path d="M60.0001 10.0217V10.0217C77.6732 10.0217 92.0001 24.3486 92.0001 42.0217V83.0217C92.0001 86.3354 89.3138 89.0217 86.0001 89.0217H34.0001C30.6864 89.0217 28.0001 86.3354 28.0001 83.0217V42.0217C28.0001 24.3486 42.327 10.0217 60.0001 10.0217Z" fill="#7F3838"/>
<path opacity="0.4" d="M58.7301 18.0217H61.2701C67.5637 18.0217 73.5995 20.5218 78.0498 24.9721C82.5 29.4223 85.0001 35.4581 85.0001 41.7517V84.5717C85.0001 87.0294 83.0078 89.0217 80.5501 89.0217H39.4501C38.2699 89.0217 37.138 88.5529 36.3035 87.7184C35.469 86.8838 35.0001 85.7519 35.0001 84.5717V41.7517C35.0001 28.646 45.6244 18.0217 58.7301 18.0217Z" fill="#393C54"/>
<circle cx="85.0001" cy="61.0217" r="7" fill="#FBC0AA"/>
<path d="M60.0002 120.022C72.4334 120.039 84.5615 116.172 94.6902 108.962L91.3702 99.6617C89.9558 95.6968 86.2098 93.0422 82.0002 93.0217H38.0502C33.8222 93.0211 30.0508 95.6796 28.6302 99.6617L25.3102 108.962C35.4389 116.172 47.567 120.039 60.0002 120.022V120.022Z" fill="#4BC190"/>
<path opacity="0.3" d="M41.0001 106.022L46.5501 108.942L44.0001 117.862C46.9515 118.67 49.9602 119.252 53.0001 119.602V92.5217L40.6201 102.772C40.1345 103.206 39.8906 103.849 39.9662 104.495C40.0418 105.142 40.4275 105.712 41.0001 106.022Z" fill="#356CB6"/>
<path opacity="0.3" d="M67.0001 92.5217V119.612C70.04 119.262 73.0488 118.68 76.0001 117.872L73.4601 108.942L79.0001 106.022C79.5769 105.717 79.969 105.151 80.0507 104.503C80.1323 103.856 79.8932 103.21 79.4101 102.772L67.0001 92.5217Z" fill="#356CB6"/>
<path d="M53.0001 119.702C57.65 120.262 62.3503 120.262 67.0001 119.702V94.0217H53.0001V119.702Z" fill="white"/>
<path d="M60.0001 84.7717V94.5217" stroke="#FBC0AA" stroke-width="14" stroke-linecap="round" stroke-linejoin="round"/>
<circle cx="35.0001" cy="61.0217" r="7" fill="#FBC0AA"/>
<path d="M60.0001 87.0218C46.193 87.0218 35.0001 75.8289 35.0001 62.0217V45.5417C35.0001 31.7346 46.193 20.5417 60.0001 20.5417C73.8072 20.5417 85.0001 31.7346 85.0001 45.5417V62.0217C85.0001 75.8289 73.8072 87.0218 60.0001 87.0218Z" fill="#FFD8C9"/>
<path d="M87.4901 47.1417V42.4217C87.4901 27.4717 75.7801 14.8117 60.8301 14.4217C53.4103 14.2031 46.217 16.9923 40.8841 22.1558C35.5512 27.3192 32.5312 34.4187 32.5101 41.8417V47.1717C32.5101 48.2763 33.4056 49.1717 34.5101 49.1717H41.3201C43.8966 49.1732 46.3161 47.9337 47.8201 45.8417L52.7601 38.9617V38.9617C53.2478 39.4782 53.7052 40.0225 54.1301 40.5917C58.4706 46.0223 65.0481 49.1804 72.0001 49.1717H85.4501C85.9927 49.1827 86.5164 48.9726 86.9011 48.5898C87.2858 48.207 87.4984 47.6844 87.4901 47.1417Z" fill="#BC5B57"/>
<path opacity="0.1" d="M58.7601 32.9617C63.0001 41.7017 69.4701 43.1717 74.8501 43.1717H79.8501" stroke="white" stroke-width="2" stroke-linecap="round"/>
<path opacity="0.1" d="M67.0001 31.0217C69.5201 36.2417 73.3901 37.1117 76.6001 37.1117H79.6001" stroke="white" stroke-width="2" stroke-linecap="round"/>
<circle cx="72.0001" cy="58.3018" r="3" fill="#515570"/>
<circle cx="48.0001" cy="58.3018" r="3" fill="#515570"/>
<ellipse opacity="0.1" cx="46.4201" cy="65.6917" rx="4.58" ry="2.98" fill="#F85565"/>
<ellipse opacity="0.1" cx="73.5801" cy="65.6917" rx="4.58" ry="2.98" fill="#F85565"/>
<path d="M60.0001 63.0217V67.0217" stroke="#FBC0AA" stroke-width="4" stroke-linecap="round" stroke-linejoin="round"/>
<path opacity="0.2" d="M51.0001 52.0217H41.7501" stroke="#515570" stroke-width="2" stroke-linecap="round" stroke-linejoin="round"/>
<path opacity="0.2" d="M78.0001 52.0217H68.7501" stroke="#515570" stroke-width="2" stroke-linecap="round" stroke-linejoin="round"/>
<path opacity="0.4" d="M60.0001 80.0217C65.0001 80.0217 67.0001 77.0217 67.0001 77.0217H53.0001C53.0001 77.0217 55.0001 80.0217 60.0001 80.0217Z" fill="#F85565"/>
<path d="M61.0701 74.9517L60.5201 75.5017C60.2391 75.7658 59.8011 75.7658 59.5201 75.5017L58.9701 74.9517C57.8301 73.8117 56.0401 74.0217 54.7001 75.4217L53.0001 77.0217H67.0001L65.3401 75.4217C64.0001 74.0217 62.2101 73.8117 61.0701 74.9517Z" fill="#F85565"/>
</svg>
