<svg width="120" height="120" viewBox="0 0 120 120" fill="none" xmlns="http://www.w3.org/2000/svg">
<circle cx="60.0001" cy="60" r="60" fill="#00ADFE"/>
<circle opacity="0.3" cx="60.0001" cy="60" r="48" fill="white"/>
<path d="M60.0001 4.67999V4.67999C82.6438 4.67999 101 23.0363 101 45.68V53.68C101.008 61.0211 98.0974 68.0642 92.9093 73.258C87.7212 78.4517 80.6812 81.37 73.3401 81.37H46.6601C31.3839 81.37 19.0001 68.9862 19.0001 53.71V45.71C19.0001 23.0663 37.3564 4.70999 60.0001 4.70999V4.67999Z" fill="#393C54"/>
<circle cx="85.0001" cy="60" r="7" fill="#8F5653"/>
<path d="M60.0001 120C71.5514 120.014 82.8585 116.675 92.5501 110.39L89.3701 99.64C87.9557 95.6751 84.2097 93.0205 80.0001 93H40.0501C35.8221 92.9994 32.0507 95.6579 30.6301 99.64L27.4501 110.39C37.1416 116.675 48.4488 120.014 60.0001 120Z" fill="#F85565"/>
<path d="M60.0001 111C69.9412 111 78.0001 102.941 78.0001 93H42.0001C42.0001 102.941 50.059 111 60.0001 111V111Z" fill="#FFD8C9"/>
<path d="M60.0001 87.75V95.5" stroke="#8F5653" stroke-width="14" stroke-linecap="round"/>
<circle cx="35.0001" cy="60" r="7" fill="#8F5653"/>
<path d="M60.0001 90C46.193 90 35.0001 78.8071 35.0001 65V47.52C35.0001 33.7129 46.193 22.52 60.0001 22.52C73.8072 22.52 85.0001 33.7129 85.0001 47.52V65C85.0001 78.8071 73.8072 90 60.0001 90Z" fill="#B56B63"/>
<circle cx="73.2501" cy="58.28" r="3" fill="#393C54"/>
<path d="M67.7501 59.37C68.6672 57.1443 70.7218 55.5932 73.1135 55.3208C75.5052 55.0483 77.8559 56.0976 79.2501 58.06" stroke="#393C54" stroke-linecap="round" stroke-linejoin="round"/>
<circle cx="46.7501" cy="58.28" r="3" fill="#393C54"/>
<path d="M52.2501 59.37C51.333 57.1443 49.2785 55.5932 46.8868 55.3208C44.495 55.0483 42.1443 56.0976 40.7501 58.06" stroke="#393C54" stroke-linecap="round" stroke-linejoin="round"/>
<ellipse opacity="0.2" cx="47.0002" cy="66" rx="5.08" ry="3" fill="#F85565"/>
<ellipse opacity="0.2" cx="73.0002" cy="66" rx="5.08" ry="3" fill="#F85565"/>
<circle cx="86.0001" cy="68" r="3" fill="#FFD8C9"/>
<circle cx="34.0001" cy="68" r="3" fill="#FFD8C9"/>
<path opacity="0.5" d="M69.0001 52L74.1801 49.64C75.711 48.9395 77.5022 49.1313 78.8501 50.14L80.0001 51" stroke="#515570" stroke-width="2" stroke-linecap="round" stroke-linejoin="round"/>
<path opacity="0.5" d="M51.0001 52L45.8201 49.64C44.2892 48.9395 42.498 49.1313 41.1501 50.14L40.0001 51" stroke="#515570" stroke-width="2" stroke-linecap="round" stroke-linejoin="round"/>
<path d="M87.0001 27C77.0001 9.99999 60.0001 12 60.0001 12C60.0001 12 43.0001 9.99999 33.0001 27C27.0537 36.9044 24.9206 48.6364 27.0001 60C27.0001 60 30.0001 55.28 35.0001 55.28C35.0001 55.08 38.6501 47.2 40.6801 42.84C41.4159 41.2988 43.1613 40.5193 44.8001 41C49.7485 42.373 54.8649 43.0462 60.0001 43C65.1353 43.0462 70.2517 42.373 75.2001 41C76.8517 40.5266 78.6016 41.3293 79.3201 42.89C81.3501 47.2 85.0001 55.08 85.0001 55.28C90.0001 55.28 93.0001 60 93.0001 60C95.0796 48.6364 92.9465 36.9044 87.0001 27V27Z" fill="#393C54"/>
<path d="M60.0001 61V69" stroke="#8F5653" stroke-width="4" stroke-linecap="round"/>
<path d="M63.0001 68H57.0001" stroke="#8F5653" stroke-width="4" stroke-linecap="round"/>
<path d="M67.5502 75C67.8174 75.0154 68.0673 75.1373 68.244 75.3384C68.4207 75.5395 68.5094 75.803 68.4902 76.07C67.9777 80.3758 64.3264 83.6183 59.9902 83.6183C55.654 83.6183 52.0027 80.3758 51.4902 76.07C51.471 75.7997 51.5624 75.5332 51.7433 75.3315C51.9243 75.1298 52.1794 75.0102 52.4502 75H67.5502Z" fill="#393C54"/>
<path d="M55.0001 81.91C57.9997 84.1108 62.0805 84.1108 65.0801 81.91C64.0528 80.0933 62.1272 78.97 60.0401 78.97C57.953 78.97 56.0274 80.0933 55.0001 81.91H55.0001Z" fill="#F85565"/>
<path d="M65.0002 77H55.0002C54.5025 76.9722 54.0374 76.7436 53.7113 76.3666C53.3852 75.9896 53.226 75.4965 53.2702 75H66.7702C66.8144 75.5031 66.6498 76.0023 66.3151 76.3805C65.9804 76.7587 65.5049 76.9827 65.0002 77Z" fill="white"/>
</svg>
